<?xml version="1.0" standalone="no"?><!DOCTYPE svg PUBLIC "-//W3C//DTD SVG 1.1//EN" "http://www.w3.org/Graphics/SVG/1.1/DTD/svg11.dtd"><svg t="1530105166225" class="icon" style="" viewBox="0 0 1024 1024" version="1.1" xmlns="http://www.w3.org/2000/svg" p-id="9198" xmlns:xlink="http://www.w3.org/1999/xlink" width="200" height="200"><defs><style type="text/css"></style></defs><path d="M823.116 938.462H200.884c-71.706 0-130.046-58.34-130.046-130.046V203.184c0-16.24 13.168-29.41 29.41-29.41s29.41 13.17 29.41 29.41v605.232c0 39.276 31.952 71.224 71.224 71.224h622.232c39.272 0 71.224-31.948 71.224-71.224V433.552c0-16.24 13.168-29.41 29.41-29.41s29.41 13.17 29.41 29.41v374.864c0.004 71.706-58.336 130.046-130.042 130.046z" fill="#2D527C" p-id="9199"></path><path d="M29.41 114.938h965.172v204.288H29.41z" fill="#CEE8FA" p-id="9200"></path><path d="M994.59 348.65H29.41C13.168 348.65 0 335.48 0 319.238V114.948c0-16.24 13.168-29.41 29.41-29.41h965.178c16.244 0 29.41 13.17 29.41 29.41v204.29c0.002 16.242-13.166 29.412-29.408 29.412zM58.822 289.828h906.356V144.36H58.822v145.468zM669.348 556.114H354.652c-16.244 0-29.41-13.17-29.41-29.41v-88.23c0-16.24 13.168-29.41 29.41-29.41s29.41 13.17 29.41 29.41v58.818h255.874v-58.818c0-16.24 13.168-29.41 29.41-29.41 16.244 0 29.41 13.17 29.41 29.41v88.23c0.002 16.238-13.164 29.41-29.408 29.41z" fill="#2D527C" p-id="9201"></path><path d="M100.25 791.406v17.008c0 55.578 45.054 100.634 100.634 100.634h622.234c55.578 0 100.634-45.054 100.634-100.634v-17.008H100.25z" fill="#CEE8FA" p-id="9202"></path><path d="M823.116 938.462H200.884c-71.706 0-130.046-58.34-130.046-130.046v-17.008c0-16.24 13.168-29.41 29.41-29.41h823.5c16.244 0 29.41 13.17 29.41 29.41v17.008c0.004 71.706-58.336 130.046-130.042 130.046zM130.742 820.818c5.882 33.384 35.098 58.822 70.142 58.822h622.232c35.046 0 64.26-25.438 70.142-58.822H130.742z" fill="#2D527C" p-id="9203"></path></svg>