<?xml version="1.0" standalone="no"?><!DOCTYPE svg PUBLIC "-//W3C//DTD SVG 1.1//EN" "http://www.w3.org/Graphics/SVG/1.1/DTD/svg11.dtd"><svg t="1530110052806" class="icon" style="" viewBox="0 0 1024 1024" version="1.1" xmlns="http://www.w3.org/2000/svg" p-id="26351" xmlns:xlink="http://www.w3.org/1999/xlink" width="200" height="200"><defs><style type="text/css"></style></defs><path d="M539.78624 485.129216h-55.553024c-15.340544 0-27.777024-12.437504-27.777024-27.776 0-15.342592 12.43648-27.778048 27.777024-27.778048h55.553024c15.340544 0 27.777024 12.435456 27.777024 27.778048 0 15.33952-12.43648 27.776-27.777024 27.776z m-398.1312-203.696128v499.979264c0 81.8176 66.325504 148.14208 148.14208 148.14208h444.425216c81.816576 0 148.14208-66.32448 148.14208-148.14208v-499.97824H141.65504z" fill="#FFF200" p-id="26352"></path><path d="M484.233216 429.575168h55.553024c15.340544 0 27.777024 12.43648 27.777024 27.776 0 15.341568-12.43648 27.777024-27.777024 27.777024h-55.553024c-15.340544 0-27.777024-12.435456-27.777024-27.777024 0-15.33952 12.43648-27.776 27.777024-27.776z m0 96.513024h55.553024c37.901312 0 68.737024-30.834688 68.737024-68.737024 0-37.901312-30.835712-68.736-68.737024-68.736h-55.553024c-37.901312 0-68.737024 30.834688-68.737024 68.736 0 37.902336 30.835712 68.737024 68.737024 68.737024z m-301.618176-203.69408h658.789376v459.01824c0 59.10016-48.08192 107.18208-107.18208 107.18208H289.79712c-59.10016 0-107.18208-48.08192-107.18208-107.18208v-459.01824z m-40.96 459.01824c0 81.8176 66.325504 148.14208 148.14208 148.14208h444.425216c81.816576 0 148.14208-66.32448 148.14208-148.14208v-499.97824H141.65504v499.97824zM882.364416 203.43808H141.65504c-18.25792 0-33.11104-14.854144-33.11104-33.11104 0-18.25792 14.85312-33.11104 33.11104-33.11104h740.709376c18.25792 0 33.11104 14.85312 33.11104 33.11104s-14.85312 33.11104-33.11104 33.11104z m0-107.18208H141.65504C100.74624 96.256 67.584 129.41824 67.584 170.32704c0 40.9088 33.16224 74.07104 74.07104 74.07104h740.709376c40.9088 0 74.07104-33.163264 74.07104-74.07104 0-40.9088-33.16224-74.07104-74.07104-74.07104z" fill="#000000" p-id="26353"></path></svg>