<?xml version="1.0" standalone="no"?><!DOCTYPE svg PUBLIC "-//W3C//DTD SVG 1.1//EN" "http://www.w3.org/Graphics/SVG/1.1/DTD/svg11.dtd"><svg t="1530028699196" class="icon" style="" viewBox="0 0 1024 1024" version="1.1" xmlns="http://www.w3.org/2000/svg" p-id="3902" xmlns:xlink="http://www.w3.org/1999/xlink" width="200" height="200"><defs><style type="text/css"></style></defs><path d="M722.8 525.3H300.5V355.2c0-41.6 33.7-75.3 75.3-75.3h271.7c41.6 0 75.3 33.7 75.3 75.3v170.1z" fill="#FFD45A" p-id="3903"></path><path d="M737.5 164.8H285.7c-51.9 0-94.1 42.2-94.1 94.1V717c0 31.1 25.3 56.5 56.5 56.5h24.1v25c0 20.8 16.9 37.6 37.6 37.6h52.7c20.8 0 37.6-16.9 37.6-37.6v-25H623v25c0 20.8 16.9 37.6 37.6 37.6h52.7c20.8 0 37.6-16.9 37.6-37.6v-25H775c31.1 0 56.5-25.3 56.5-56.5V258.9c0.1-51.9-42.1-94.1-94-94.1z m-451.8 37.6h451.8c31.1 0 56.5 25.3 56.5 56.5v247.4H229.3V258.9c0-31.2 25.3-56.5 56.4-56.5z m76.9 596h-52.7v-25h52.7v25z m350.8 0h-52.7v-25h52.7v25z m61.8-62.6H248.1c-10.4 0-18.8-8.4-18.8-18.8V544H794v173c0 10.4-8.5 18.8-18.8 18.8z" fill="#593A25" p-id="3904"></path><path d="M353.1 634.2m-31.1 0a31.1 31.1 0 1 0 62.2 0 31.1 31.1 0 1 0-62.2 0Z" fill="#593A25" p-id="3905"></path><path d="M670.1 634.2m-31.1 0a31.1 31.1 0 1 0 62.2 0 31.1 31.1 0 1 0-62.2 0Z" fill="#593A25" p-id="3906"></path><path d="M405.4 391.5c3.5 3 7.9 4.5 12.2 4.5 5.3 0 10.6-2.3 14.4-6.6l55.1-64.9c6.7-7.9 5.8-19.8-2.2-26.5-7.9-6.7-19.8-5.8-26.5 2.2L403.2 365c-6.7 7.9-5.7 19.8 2.2 26.5zM496.8 476c3.5 3 7.9 4.5 12.2 4.5 5.3 0 10.6-2.3 14.4-6.6l101.9-120c6.7-7.9 5.8-19.8-2.2-26.5-7.9-6.7-19.8-5.7-26.5 2.2l-101.9 120c-6.8 7.8-5.8 19.7 2.1 26.4z" fill="#593A25" p-id="3907"></path></svg>