<?xml version="1.0" standalone="no"?><!DOCTYPE svg PUBLIC "-//W3C//DTD SVG 1.1//EN" "http://www.w3.org/Graphics/SVG/1.1/DTD/svg11.dtd"><svg t="1530028640208" class="icon" style="" viewBox="0 0 1024 1024" version="1.1" xmlns="http://www.w3.org/2000/svg" p-id="3209" xmlns:xlink="http://www.w3.org/1999/xlink" width="200" height="200"><defs><style type="text/css"></style></defs><path d="M803.64 250.61H77v582.51a17 17 0 0 0 17 17h776.64V317.61a67.08 67.08 0 0 0-67-67zM242.77 719.13a50.31 50.31 0 1 1 50.31-50.31 50.31 50.31 0 0 1-50.31 50.31z m139.78-149.27a50.31 50.31 0 1 1 50.31-50.31 50.31 50.31 0 0 1-50.31 50.31z m159.37 82.9a50.31 50.31 0 1 1 50.31-50.31 50.31 50.31 0 0 1-50.31 50.32z m162.95-170.54a50.31 50.31 0 1 1 50.31-50.31 50.31 50.31 0 0 1-50.31 50.31z" fill="#F9DB91" p-id="3210"></path><path d="M382.55 519.56m-50.31 0a50.31 50.31 0 1 0 100.62 0 50.31 50.31 0 1 0-100.62 0Z" fill="#EF6A6A" p-id="3211"></path><path d="M541.92 602.46m-50.31 0a50.31 50.31 0 1 0 100.62 0 50.31 50.31 0 1 0-100.62 0Z" fill="#AEF0FF" p-id="3212"></path><path d="M704.87 431.91m-50.31 0a50.31 50.31 0 1 0 100.62 0 50.31 50.31 0 1 0-100.62 0Z" fill="#EF6A6A" p-id="3213"></path><path d="M242.77 668.82m-50.31 0a50.31 50.31 0 1 0 100.62 0 50.31 50.31 0 1 0-100.62 0Z" fill="#AEF0FF" p-id="3214"></path><path d="M947.37 838.55h-63.73V317.61a80 80 0 0 0-80-80H88.57v-64.1a12.52 12.52 0 0 0-11.69-12.62A12.29 12.29 0 0 0 64 173.16v661.6a28.35 28.35 0 0 0 28.35 28.35h855.36A12.29 12.29 0 0 0 960 850.24a12.52 12.52 0 0 0-12.63-11.69z m-89.73-1.43H96.58a14.21 14.21 0 0 1-6.58-6.58V263.61h713.64a54.06 54.06 0 0 1 54 54z" fill="#512C56" p-id="3215"></path><path d="M704.87 368.6a63.26 63.26 0 0 0-53.38 97.28l-77.19 82.21a63.21 63.21 0 0 0-85.16 19.46l-47-26.77a63.32 63.32 0 1 0-111.31 15.29l-56.12 58.16A63.43 63.43 0 1 0 294 631.72l55.9-57.94a63.17 63.17 0 0 0 78.67-10.83l50.92 29a63.31 63.31 0 1 0 113.92-26.27l76.25-81.21a63.3 63.3 0 1 0 35.2-115.9z m-462.1 337.53a37.31 37.31 0 1 1 37.31-37.31 37.35 37.35 0 0 1-37.31 37.31z m139.78-149.27a37.31 37.31 0 1 1 37.31-37.31 37.35 37.35 0 0 1-37.31 37.31z m159.37 82.91a37.31 37.31 0 1 1 37.31-37.31 37.35 37.35 0 0 1-37.31 37.31z m162.95-170.55a37.31 37.31 0 1 1 37.31-37.31 37.35 37.35 0 0 1-37.31 37.31z" fill="#512C56" p-id="3216"></path></svg>