<?xml version="1.0" standalone="no"?><!DOCTYPE svg PUBLIC "-//W3C//DTD SVG 1.1//EN" "http://www.w3.org/Graphics/SVG/1.1/DTD/svg11.dtd"><svg t="1543906207291" class="icon" style="" viewBox="0 0 1024 1024" version="1.1" xmlns="http://www.w3.org/2000/svg" p-id="1438" xmlns:xlink="http://www.w3.org/1999/xlink" width="200" height="200"><defs><style type="text/css"></style></defs><path d="M26.851065 417.16763c-5.654022 0-11.352044-1.778007-16.206063-5.454022-11.828046-8.962035-14.152055-25.814101-5.192021-37.644147 58.056227-76.630299 133.880523-140.116547 219.274857-183.600717 89.59835-45.622178 186.248728-68.758269 287.269122-68.758269s197.672772 23.13209 287.271122 68.756269c85.394334 43.48617 161.21863 106.976418 219.276857 183.604717 8.962035 11.828046 6.640026 28.684112-5.192021 37.644147-11.834046 8.966035-28.684112 6.636026-37.644147-5.19202-111.254435-146.852574-280.271095-231.072903-463.707811-231.072903S159.547583 259.671014 48.289149 406.523588a26.842105 26.842105 0 0 1-21.438084 10.644042z" fill="#2D527C" p-id="1439"></path><path d="M512.00296 902.291525a26.798105 26.798105 0 0 1-19.000074-7.870031L99.167347 500.589955a26.866105 26.866105 0 0 1-2.998011-34.428134c95.208372-135.77253 250.658979-216.828847 415.831624-216.828847 165.176645 0 320.629252 81.056317 415.837624 216.828847 8.520033 12.148047 5.578022 28.906113-6.572025 37.428146-12.148047 8.524033-28.906113 5.578022-37.428147-6.572026-85.156333-121.440474-224.164876-193.942758-371.837452-193.942757-140.190548 0-272.565065 65.340255-358.4814 175.864687L531.003034 856.417345c10.492041 10.492041 10.492041 27.506107 0 38.002149a26.778105 26.778105 0 0 1-19.000074 7.872031z" fill="#2D527C" p-id="1440"></path><path d="M512.00296 902.291525a26.798105 26.798105 0 0 1-19.000074-7.870031L191.267707 592.690315a26.874105 26.874105 0 0 1-3.944015-32.986129c33.34013-54.696214 80.304314-100.480393 135.80653-132.396517 57.270224-32.938129 122.582479-50.344197 188.868738-50.344196 66.288259 0 131.602514 17.410068 188.872738 50.344196 55.502217 31.916125 102.4664 77.700304 135.80653 132.396517a26.874105 26.874105 0 0 1-3.944015 32.986129L531.003034 894.423494a26.790105 26.790105 0 0 1-19.000074 7.868031zM244.681916 570.106227l267.317044 267.315044 267.319044-267.315044c-61.218239-87.678342-159.670624-139.404545-267.321044-139.404545-107.64642-0.002-206.096805 51.726202-267.315044 139.404545z" fill="#2D527C" p-id="1441"></path><path d="M512.00296 875.42342l207.29081-207.29081C684.819635 587.762296 604.995323 531.456076 512.00296 531.456076s-172.814675 56.30622-207.29081 136.678534L512.00296 875.42342z" fill="#CEE8FA" p-id="1442"></path><path d="M512.00296 902.291525a26.798105 26.798105 0 0 1-19.000074-7.870031L285.710076 687.130684a26.876105 26.876105 0 0 1-5.694022-29.594115A252.184985 252.184985 0 0 1 512.00296 504.579971a252.172985 252.172985 0 0 1 231.986906 152.956598 26.880105 26.880105 0 0 1-5.694022 29.594115L531.003034 894.421494a26.784105 26.784105 0 0 1-19.000074 7.870031z m-174.814683-239.682937L512.00296 837.423271l174.814683-174.814683A198.456775 198.456775 0 0 0 512.00296 558.322181a198.472775 198.472775 0 0 0-174.814683 104.286407z" fill="#2D527C" p-id="1443"></path></svg>