<?xml version="1.0" standalone="no"?><!DOCTYPE svg PUBLIC "-//W3C//DTD SVG 1.1//EN" "http://www.w3.org/Graphics/SVG/1.1/DTD/svg11.dtd"><svg t="1530110247493" class="icon" style="" viewBox="0 0 1024 1024" version="1.1" xmlns="http://www.w3.org/2000/svg" p-id="34602" xmlns:xlink="http://www.w3.org/1999/xlink" width="200" height="200"><defs><style type="text/css"></style></defs><path d="M115 117.6h817.8V270H115z" fill="#CEE8FA" p-id="34603"></path><path d="M906.4 310.2h-784c-13.7 0-24.9-11.1-24.9-24.9V127.7c0-13.7 11.1-24.9 24.9-24.9h784c13.7 0 24.8 11.1 24.8 24.9v157.6c0 13.7-11.1 24.9-24.8 24.9z m-759.2-49.7h734.3V152.6H147.2v107.9zM671.5 616H121.8c-13.7 0-24.9-11.1-24.9-24.8 0-13.7 11.1-24.9 24.9-24.9h524.8V458.4H121.8c-13.7 0-24.9-11.1-24.9-24.9 0-13.7 11.1-24.8 24.9-24.8h549.7c13.7 0 24.9 11.1 24.9 24.8v157.6c0 13.8-11.1 24.9-24.9 24.9z m0 0" fill="#2197EF" p-id="34604"></path><path d="M129.2 754.7h306v144h-306z" fill="#CEE8FA" p-id="34605"></path><path d="M436.7 714.5H122.4c-13.7 0-24.9 11.1-24.9 24.8V897c0 13.7 11.1 24.9 24.9 24.9h314.3c13.7 0 24.9-11.1 24.9-24.9V739.4c-0.1-13.8-11.2-24.9-24.9-24.9z m-24.9 157.6H147.2V764.2h264.6v107.9z" fill="#2197EF" p-id="34606"></path></svg>