<?xml version="1.0" standalone="no"?><!DOCTYPE svg PUBLIC "-//W3C//DTD SVG 1.1//EN" "http://www.w3.org/Graphics/SVG/1.1/DTD/svg11.dtd"><svg t="1540831811625" class="icon" style="" viewBox="0 0 1024 1024" version="1.1" xmlns="http://www.w3.org/2000/svg" p-id="3184" xmlns:xlink="http://www.w3.org/1999/xlink" width="200" height="200"><defs><style type="text/css"></style></defs><path d="M938.666667 512c0 235.648-191.018667 426.666667-426.666667 426.666667S85.333333 747.648 85.333333 512 276.352 85.333333 512 85.333333s426.666667 191.018667 426.666667 426.666667" fill="#2196F3" p-id="3185"></path><path d="M853.333333 512c0 188.522667-152.810667 341.333333-341.333333 341.333333S170.666667 700.522667 170.666667 512 323.477333 170.666667 512 170.666667s341.333333 152.810667 341.333333 341.333333" fill="#EEEEEE" p-id="3186"></path><path d="M512 213.333333l-42.666667 298.666667 42.666667 298.666667 42.666667-298.666667z" fill="#90A4AE" p-id="3187"></path><path d="M300.821333 300.821333l181.013334 241.344 241.344 181.013334-181.013334-241.344z" fill="#90A4AE" p-id="3188"></path><path d="M213.333333 512l298.666667 42.666667 298.666667-42.666667-298.645334-42.666667z" fill="#90A4AE" p-id="3189"></path><path d="M300.821333 723.178667l256.426667-165.930667-90.496-90.496z" fill="#3F51B5" p-id="3190"></path><path d="M466.752 466.752l90.496 90.496 165.930667-256.426667z" fill="#FF3D00" p-id="3191"></path><path d="M544 512a32 32 0 1 1-63.978667 0.021333A32 32 0 0 1 544 512" fill="#FFFFFF" p-id="3192"></path></svg>