<?xml version="1.0" standalone="no"?><!DOCTYPE svg PUBLIC "-//W3C//DTD SVG 1.1//EN" "http://www.w3.org/Graphics/SVG/1.1/DTD/svg11.dtd"><svg t="1540807363006" class="icon" style="" viewBox="0 0 1024 1024" version="1.1" xmlns="http://www.w3.org/2000/svg" p-id="9944" xmlns:xlink="http://www.w3.org/1999/xlink" width="200" height="200"><defs><style type="text/css"></style></defs><path d="M890.6 807.9H133.4c-38.2 0-69.1-30.9-69.1-69.1V434.9c0-38.2 30.9-69.1 69.1-69.1h757.2c38.2 0 69.1 30.9 69.1 69.1v303.9c0 38.2-30.9 69.1-69.1 69.1z" fill="#3173E7" p-id="9945"></path><path d="M821.2 416.2H202.7c-10.2 0-18.5-8.3-18.5-18.5v-163c0-10.2 8.3-18.5 18.5-18.5h618.5c10.2 0 18.5 8.3 18.5 18.5v163c0 10.2-8.3 18.5-18.5 18.5z" fill="#3173E7" p-id="9946"></path><path d="M821.2 216.3h-27.3c10.2 0 18.5 8.3 18.5 18.5v163c0 10.2-8.3 18.5-18.5 18.5h27.3c10.2 0 18.5-8.3 18.5-18.5v-163c0-10.2-8.3-18.5-18.5-18.5z" fill="#6F9DEE" p-id="9947"></path><path d="M890.6 778.4H133.3c-38.2 0-69.1-30.9-69.1-69.1V405.4c0-38.2 30.9-69.1 69.1-69.1h757.2c38.2 0 69.1 30.9 69.1 69.1v303.9c0.1 38.2-30.9 69.1-69 69.1z" fill="#5EADEF" p-id="9948"></path><path d="M831.7 575.4H193c-9.6 0-17.3-7.7-17.3-17.3V534c0-9.6 7.7-17.3 17.3-17.3h638.8c9.6 0 17.3 7.7 17.3 17.3v24.1c-0.1 9.6-7.8 17.3-17.4 17.3z" fill="#3173E7" p-id="9949"></path><path d="M248.6 546.1H776V927H248.6zM248.2 97h527.4v239.9H248.2z" fill="#E7F5FD" p-id="9950"></path><path d="M739.1 97h36.5v239.9h-36.5zM739.5 546.1H776V927h-36.5z" fill="#F0F8FC" p-id="9951"></path><path d="M697.7 688.7H308.1c-5.1 0-9.2-4.1-9.2-9.2v-6.2c0-5.1 4.1-9.2 9.2-9.2h389.7c5.1 0 9.2 4.1 9.2 9.2v6.2c-0.1 5.1-4.2 9.2-9.3 9.2zM697.7 837.7H308.1c-5.1 0-9.2-4.1-9.2-9.2v-70.6c0-5.1 4.1-9.2 9.2-9.2h389.7c5.1 0 9.2 4.1 9.2 9.2v70.6c-0.1 5.1-4.2 9.2-9.3 9.2z" fill="#FCCA4C" p-id="9952"></path><path d="M785.1 454.6m-22.2 0a22.2 22.2 0 1 0 44.4 0 22.2 22.2 0 1 0-44.4 0Z" fill="#FCCA4C" p-id="9953"></path><path d="M695.1 454.6m-22.2 0a22.2 22.2 0 1 0 44.4 0 22.2 22.2 0 1 0-44.4 0Z" fill="#E7F5FD" p-id="9954"></path><path d="M892.5 336.3h-55.9c37.2 0 92.4 31.8 92.4 71v300.2c0 39.2-55.2 71-92.4 71h55.9c37.2 0 67.3-31.8 67.3-71V407.3c0-39.2-30.2-71-67.3-71z" fill="#8FC6F4" p-id="9955"></path></svg>