<?xml version="1.0" encoding="UTF-8" standalone="no"?>
<svg
   xmlns:dc="http://purl.org/dc/elements/1.1/"
   xmlns:cc="http://creativecommons.org/ns#"
   xmlns:rdf="http://www.w3.org/1999/02/22-rdf-syntax-ns#"
   xmlns:svg="http://www.w3.org/2000/svg"
   xmlns="http://www.w3.org/2000/svg"
   viewBox="0 0 834.03661 677.10857"
   height="677.10858"
   width="834.03662"
   xml:space="preserve"
   id="svg2"
   version="1.1"><metadata
     id="metadata8"><rdf:RDF><cc:Work
         rdf:about=""><dc:format>image/svg+xml</dc:format><dc:type
           rdf:resource="http://purl.org/dc/dcmitype/StillImage" /></cc:Work></rdf:RDF></metadata><defs
     id="defs6"><linearGradient
       id="linearGradient30"
       spreadMethod="pad"
       gradientTransform="matrix(625.52734,0,0,-625.52734,89.264648,680.08496)"
       gradientUnits="userSpaceOnUse"
       y2="0"
       x2="1"
       y1="0"
       x1="0"><stop
         id="stop24"
         offset="0"
         style="stop-opacity:1;stop-color:#82afaf" /><stop
         id="stop26"
         offset="0.484694"
         style="stop-opacity:1;stop-color:#0082be" /><stop
         id="stop28"
         offset="1"
         style="stop-opacity:1;stop-color:#005fa0" /></linearGradient><linearGradient
       id="linearGradient52"
       spreadMethod="pad"
       gradientTransform="matrix(186,0,0,-186,487.26367,567.33984)"
       gradientUnits="userSpaceOnUse"
       y2="0"
       x2="1"
       y1="0"
       x1="0"><stop
         id="stop46"
         offset="0"
         style="stop-opacity:1;stop-color:#005fa0" /><stop
         id="stop48"
         offset="0.515306"
         style="stop-opacity:1;stop-color:#0082be" /><stop
         id="stop50"
         offset="1"
         style="stop-opacity:1;stop-color:#82afaf" /></linearGradient><clipPath
       id="clipPath62"
       clipPathUnits="userSpaceOnUse"><path
         id="path60"
         d="M 0,1190.55 H 841.89 V 0 H 0 Z" /></clipPath></defs><g
     transform="matrix(1.3333333,0,0,-1.3333333,-119.02,1245.3333)"
     id="g10"><g
       id="g12"><g
         id="g14"><g
           id="g20"><g
             id="g22"><path
               id="path32"
               style="fill:url(#linearGradient30);stroke:none"
               d="m 416.358,913.924 c 2.964,-1.565 48.463,-27.431 -26.094,-103.923 v 0 c -76.999,-79 -82.666,-189 -23.999,-270.942 v 0 C 424.93,457.117 487.264,450.5 487.264,450.5 v 0 c -89,-2 -149.499,81 -182.999,125.5 v 0 c -33.5,44.5 -71.501,75.947 -120.5,75.947 v 0 c -49.001,0 -94.5,-39.946 -94.5,-39.946 v 0 C 278.265,610 272.264,474 444.264,433.5 v 0 c 172,-40.5 235,100 235,100 v 0 c 0,0 -18.333,-37.834 -93,-53.834 v 0 c -74.666,-16 -168.667,46 -181.192,140 v 0 C 392.547,713.668 453.597,773 516.264,784.334 v 0 C 578.931,795.667 634.765,764 646.265,716.501 v 0 c 11.5,-47.5 -16,-68.001 -16,-68.001 v 0 c 88.499,27 84.5,187.001 84.5,187.001 v 0 C 646.265,754 593.764,934 593.764,934 v 0 C 590.815,825.376 422.083,910.987 416.358,913.924 m 0,0 C 416.261,913.975 416.21,914 416.21,914 v 0 c 0,0 0.049,-0.026 0.148,-0.076" /></g></g></g></g><g
       id="g34"><g
         id="g36"><g
           id="g42"><g
             id="g44"><path
               id="path54"
               style="fill:url(#linearGradient52);stroke:none"
               d="m 487.264,546.334 c 0,0 31.667,12.332 64.999,19.666 v 0 c 18.358,4.038 33.379,-3.449 43.672,-10.935 v 0 c 8.397,-6.108 13.648,-12.216 14.996,-12.065 v 0 c 2.999,0.334 16,20.334 25,27.666 v 0 c 9,7.334 37.333,-3.666 37.333,-3.666 v 0 c -43,45.001 -48.668,8.334 -60,-0.666 v 0 c -11.333,-9 -30.333,24.332 -56,25.332 v 0 c -0.274,0.011 -0.55,0.016 -0.829,0.016 v 0 c -25.78,0 -69.171,-45.348 -69.171,-45.348" /></g></g></g></g><g
       id="g56"><g
         clip-path="url(#clipPath62)"
         id="g58"><g
           transform="translate(586.2646,890.0103)"
           id="g64"><path
             id="path66"
             style="fill:#ffffff;fill-opacity:1;fill-rule:nonzero;stroke:none"
             d="m 0,0 c 0,0 -18.332,-52 -126.333,-4.667 0,0 114,-80.666 126.333,4.667" /></g><g
           transform="translate(617.4756,855.8354)"
           id="g68"><path
             id="path70"
             style="fill:#ffffff;fill-opacity:1;fill-rule:nonzero;stroke:none"
             d="M 0,0 C 0,0 38,-71 71,-46 71,-46 38,-104.5 0,0" /></g><g
           transform="translate(335.2866,656.5005)"
           id="g72"><path
             id="path74"
             style="fill:#ffffff;fill-opacity:1;fill-rule:nonzero;stroke:none"
             d="m 0,0 c 0,0 -0.5,86.5 59.5,145 0,0 30.5,28 40.5,56.5 0,0 2,-28 -46.5,-73.5 C 5,82.5 0,0 0,0" /></g><g
           transform="translate(527.5977,575.668)"
           id="g76"><path
             id="path78"
             style="fill:#ffffff;fill-opacity:1;fill-rule:nonzero;stroke:none"
             d="M 0,0 C 0,0 21.334,12 30.334,11.332 39.334,10.666 43.333,7 45,4 45,4 32,9.998 0,0" /></g><g
           transform="translate(630.5977,577.7617)"
           id="g80"><path
             id="path82"
             style="fill:#ffffff;fill-opacity:1;fill-rule:nonzero;stroke:none"
             d="M 0,0 C 0,0 7,12.666 17.333,4.332 17.333,4.332 10.667,5.645 0,0" /></g><g
           transform="translate(127.7646,617.5005)"
           id="g84"><path
             id="path86"
             style="fill:#ffffff;fill-opacity:1;fill-rule:nonzero;stroke:none"
             d="M 0,0 C 0,0 65.5,19.553 105,-33.473 105,-33.473 62.5,-2.5 0,0" /></g></g></g></g></svg>