<?xml version="1.0" standalone="no"?><!DOCTYPE svg PUBLIC "-//W3C//DTD SVG 1.1//EN" "http://www.w3.org/Graphics/SVG/1.1/DTD/svg11.dtd"><svg t="1530028567287" class="icon" style="" viewBox="0 0 1024 1024" version="1.1" xmlns="http://www.w3.org/2000/svg" p-id="2816" xmlns:xlink="http://www.w3.org/1999/xlink" width="200" height="200"><defs><style type="text/css"></style></defs><path d="M892.1 938.7H131.9c-17.8 0-35.1-3.5-51.4-10.4-15.6-6.6-29.7-16.1-41.9-28.2C26.5 888 17 873.9 10.3 858.2 3.5 841.8 0 824.5 0 806.8V217.2c0-17.8 3.5-35 10.4-51.3 6.6-15.7 16.1-29.8 28.2-41.9 12.2-12.2 26.3-21.7 42-28.3 16.2-6.9 33.5-10.4 51.3-10.4h83.4c23.6 0 42.7 19.1 42.7 42.7s-19.1 42.7-42.7 42.7h-83.4c-6.3 0-12.4 1.2-18.1 3.6-5.6 2.4-10.6 5.7-14.9 10-4.3 4.3-7.6 9.2-10 14.8-2.4 5.7-3.6 11.8-3.6 18.1v589.6c0 6.3 1.2 12.4 3.7 18.1 2.3 5.5 5.7 10.5 10 14.8 4.3 4.2 9.2 7.6 14.8 9.9 5.8 2.4 11.9 3.7 18.1 3.7h760.2c6.3 0 12.4-1.2 18.1-3.6 5.6-2.4 10.6-5.7 14.9-10 4.3-4.3 7.6-9.2 10-14.8 2.4-5.7 3.6-11.8 3.6-18.1V217.2c0-6.3-1.2-12.4-3.7-18.1-2.3-5.5-5.7-10.5-10-14.8-4.3-4.2-9.2-7.6-14.8-9.9-5.8-2.4-11.9-3.7-18.1-3.7h-83.4c-23.6 0-42.7-19.1-42.7-42.7s19.1-42.7 42.7-42.7h83.4c17.8 0 35.1 3.5 51.4 10.4 15.6 6.6 29.7 16.1 41.9 28.2 12.1 12.1 21.6 26.2 28.3 41.9 6.9 16.3 10.4 33.6 10.4 51.4v589.6c0 17.8-3.5 35-10.4 51.3-6.6 15.7-16.1 29.8-28.2 41.9-12.2 12.2-26.3 21.7-42 28.3-16.3 6.9-33.6 10.4-51.4 10.4z" fill="#3688FF" p-id="2817"></path><path d="M341.3 277.3c-23.6 0-42.7-19.1-42.7-42.7V85.3c0-23.6 19.1-42.7 42.7-42.7S384 61.8 384 85.3v149.3c0 23.6-19.1 42.7-42.7 42.7zM682.7 277.3c-23.6 0-42.7-19.1-42.7-42.7V85.3c0-23.6 19.1-42.7 42.7-42.7s42.7 19.1 42.7 42.7v149.3c-0.1 23.6-19.2 42.7-42.7 42.7zM810.7 490.7H213.3c-23.6 0-42.7-19.1-42.7-42.7s19.1-42.7 42.7-42.7h597.3c23.6 0 42.7 19.1 42.7 42.7s-19.1 42.7-42.6 42.7zM810.7 704H213.3c-23.6 0-42.7-19.1-42.7-42.7s19.1-42.7 42.7-42.7h597.3c23.6 0 42.7 19.1 42.7 42.7S834.2 704 810.7 704z" fill="#5F6379" p-id="2818"></path></svg>