<?xml version="1.0" standalone="no"?><!DOCTYPE svg PUBLIC "-//W3C//DTD SVG 1.1//EN" "http://www.w3.org/Graphics/SVG/1.1/DTD/svg11.dtd"><svg t="1547803158451" class="icon" style="" viewBox="0 0 1024 1024" version="1.1" xmlns="http://www.w3.org/2000/svg" p-id="1979" xmlns:xlink="http://www.w3.org/1999/xlink" width="200" height="200"><defs><style type="text/css"></style></defs><path d="M96 416h832c0.32 0 0.576-0.192 0.896-0.192a30.656 30.656 0 0 0 30.976-30.976c-0.064-0.256 0.128-0.512 0.128-0.832a31.424 31.424 0 0 0-14.912-26.368l-188.48-188.48a30.72 30.72 0 1 0-43.456 43.456L852.544 352H96a32 32 0 0 0 0 64z m832 192H96c-0.32 0-0.576 0.192-0.896 0.192a30.528 30.528 0 0 0-30.976 30.976c0.064 0.256-0.128 0.512-0.128 0.832 0 11.264 6.144 20.672 14.912 26.368l188.48 188.48a30.72 30.72 0 1 0 43.456-43.456L171.456 672H928a32 32 0 0 0 0-64z" p-id="1980"></path></svg>